<svg id="svg" version="1.1" xmlns="http://www.w3.org/2000/svg" xmlns:xlink="http://www.w3.org/1999/xlink" width="400" height="400" viewBox="0, 0, 400,400"><g id="svgg"><path id="path0" d="M105.063 79.998 C 104.509 80.657,103.947 81.602,103.814 82.098 C 103.681 82.594,103.413 83.630,103.219 84.400 C 102.647 86.668,101.930 89.326,101.600 90.400 C 101.308 91.349,100.966 92.623,99.958 96.500 C 99.715 97.435,99.355 98.613,99.158 99.119 C 98.961 99.624,98.800 100.469,98.800 100.995 C 98.800 101.522,98.620 102.064,98.400 102.200 C 98.180 102.336,98.000 102.878,98.000 103.405 C 98.000 103.931,97.839 104.776,97.642 105.281 C 97.445 105.787,97.072 107.010,96.815 108.000 C 96.231 110.240,95.844 111.696,95.221 114.000 C 94.953 114.990,94.548 116.520,94.321 117.400 C 94.093 118.280,93.769 119.450,93.600 120.000 C 92.472 123.673,92.324 124.442,92.564 125.399 C 93.747 130.111,99.510 129.100,100.542 124.000 C 100.653 123.450,100.937 122.325,101.172 121.500 C 102.299 117.550,102.477 116.906,102.800 115.600 C 102.991 114.830,103.351 113.480,103.601 112.600 C 103.851 111.720,104.147 110.550,104.258 110.000 C 104.369 109.450,104.613 108.640,104.800 108.200 C 104.987 107.760,105.231 106.950,105.342 106.400 C 105.453 105.850,105.749 104.680,105.999 103.800 C 106.249 102.920,106.609 101.570,106.800 100.800 C 106.991 100.030,107.351 98.680,107.600 97.800 C 107.849 96.920,108.209 95.570,108.400 94.800 C 108.591 94.030,108.929 92.770,109.151 92.000 C 110.388 87.714,111.077 85.065,111.475 83.067 C 112.155 79.653,107.307 77.332,105.063 79.998 M79.859 90.900 C 77.551 92.715,73.832 95.636,71.594 97.391 C 64.459 102.986,64.278 104.269,70.002 108.652 C 71.651 109.914,74.080 111.781,75.400 112.802 C 84.285 119.668,84.178 119.600,86.076 119.600 C 88.042 119.600,88.719 119.084,89.566 116.941 C 90.316 115.041,89.478 113.855,84.800 110.190 C 82.560 108.435,79.836 106.303,78.746 105.452 C 76.223 103.480,76.004 103.848,83.126 98.080 L 89.200 93.161 89.200 91.250 C 89.200 86.371,85.780 86.243,79.859 90.900 M118.870 88.526 C 118.235 89.201,118.000 89.953,118.000 91.306 L 118.000 93.161 124.100 98.087 C 131.262 103.871,131.117 103.407,126.800 106.733 C 124.930 108.174,122.323 110.186,121.006 111.205 C 116.118 114.986,116.164 119.600,121.091 119.600 C 123.029 119.600,122.886 119.691,131.800 112.802 C 133.120 111.781,135.549 109.914,137.198 108.652 C 142.854 104.321,142.655 102.894,135.629 97.400 C 133.379 95.640,129.649 92.715,127.341 90.900 C 122.573 87.150,120.665 86.615,118.870 88.526 M212.400 129.244 C 199.113 130.738,189.234 135.226,178.707 144.552 C 173.376 149.274,173.640 149.470,173.509 140.700 L 173.400 133.400 149.308 133.297 L 125.217 133.194 124.999 134.097 C 124.879 134.594,124.830 166.500,124.891 205.000 L 125.000 275.000 149.300 275.103 L 173.600 275.206 173.608 235.103 C 173.616 193.257,173.680 191.497,175.347 186.751 C 177.964 179.306,186.857 170.751,194.200 168.615 C 195.520 168.231,197.122 167.756,197.760 167.559 C 200.004 166.864,207.122 167.140,210.500 168.051 C 218.407 170.185,225.070 177.328,227.909 186.714 C 228.540 188.800,228.617 192.761,228.800 232.000 L 229.000 275.000 253.300 275.103 L 277.600 275.206 277.600 225.234 C 277.600 191.235,277.463 174.580,277.171 173.131 C 273.627 155.543,266.073 145.283,251.021 137.609 C 245.187 134.635,239.507 132.539,234.184 131.395 C 227.376 129.932,225.519 129.650,221.049 129.401 C 218.436 129.255,216.096 129.084,215.849 129.021 C 215.602 128.958,214.050 129.058,212.400 129.244 " stroke="none" fill="#080808" fill-rule="evenodd"></path><path id="path1" d="M0.000 200.000 L 0.000 400.000 200.000 400.000 L 400.000 400.000 400.000 200.000 L 400.000 0.000 200.000 0.000 L 0.000 0.000 0.000 200.000 M110.013 78.607 C 112.957 80.129,112.964 81.631,110.074 92.200 C 108.991 96.160,107.157 102.910,105.999 107.200 C 100.182 128.748,100.485 127.868,98.576 128.738 C 94.999 130.368,91.220 127.639,91.793 123.839 C 92.010 122.402,93.624 116.211,96.392 106.200 C 97.001 104.000,97.883 100.760,98.352 99.000 C 101.180 88.398,103.255 81.045,103.599 80.401 C 104.779 78.197,107.661 77.391,110.013 78.607 M87.404 86.976 C 88.908 87.604,90.396 89.664,90.399 91.120 C 90.401 92.957,89.104 94.428,83.604 98.825 C 80.522 101.289,78.000 103.434,78.000 103.592 C 78.000 103.750,79.575 105.065,81.500 106.513 C 90.314 113.146,91.219 114.250,90.366 117.338 C 89.156 121.721,85.665 121.824,80.214 117.636 C 61.141 102.983,61.488 104.275,73.972 94.365 C 84.684 85.863,84.708 85.849,87.404 86.976 M123.842 87.161 C 124.526 87.577,128.692 90.804,133.102 94.332 C 144.544 103.484,144.622 103.924,136.000 110.657 C 127.099 117.607,124.588 119.485,123.320 120.139 C 118.450 122.653,114.105 116.260,118.136 112.511 C 119.438 111.301,125.595 106.474,127.900 104.857 C 129.690 103.602,129.846 103.821,123.613 98.839 C 120.540 96.382,117.750 93.979,117.413 93.497 C 114.859 89.851,119.979 84.805,123.842 87.161 M231.600 130.201 C 257.872 135.822,273.256 149.621,277.492 171.363 C 278.146 174.725,278.200 178.807,278.200 225.400 L 278.200 275.800 253.508 275.903 L 228.817 276.006 228.608 275.103 C 228.493 274.606,228.348 255.210,228.287 232.000 L 228.176 189.800 227.261 186.807 C 219.395 161.086,185.351 161.741,175.656 187.800 L 174.615 190.600 174.407 233.200 L 174.200 275.800 149.626 275.903 C 130.231 275.984,124.984 275.900,124.732 275.503 C 124.175 274.626,124.321 133.439,124.880 132.880 C 125.388 132.372,171.645 132.155,173.500 132.652 C 174.389 132.890,174.400 132.975,174.400 139.823 C 174.400 147.210,174.544 147.763,176.042 146.132 C 189.403 131.582,210.194 125.621,231.600 130.201 " stroke="none" fill="#fbfbfb" fill-rule="evenodd"></path><path id="path2" d="M105.173 79.302 C 103.932 80.388,103.457 81.401,102.595 84.800 C 102.233 86.230,101.783 87.940,101.596 88.600 C 101.408 89.260,100.870 91.240,100.400 93.000 C 99.930 94.760,99.390 96.740,99.200 97.400 C 98.862 98.577,97.961 101.930,96.431 107.700 C 96.009 109.295,95.390 111.590,95.057 112.800 C 94.248 115.742,93.387 118.901,92.626 121.720 C 91.467 126.014,92.910 128.800,96.293 128.800 C 99.066 128.800,100.108 127.541,101.424 122.600 C 101.775 121.280,102.421 118.850,102.859 117.200 C 103.297 115.550,103.810 113.660,104.000 113.000 C 104.190 112.340,104.717 110.405,105.172 108.700 C 105.628 106.995,106.372 104.205,106.828 102.500 C 107.283 100.795,107.810 98.860,108.000 98.200 C 108.190 97.540,108.717 95.605,109.172 93.900 C 109.628 92.195,110.382 89.405,110.849 87.700 C 112.343 82.245,112.318 81.394,110.613 79.786 C 108.809 78.085,106.772 77.903,105.173 79.302 M109.534 79.366 C 110.136 79.677,110.870 80.382,111.164 80.933 C 111.831 82.179,111.568 83.626,109.151 92.000 C 108.929 92.770,108.591 94.030,108.400 94.800 C 108.209 95.570,107.849 96.920,107.600 97.800 C 107.351 98.680,106.991 100.030,106.800 100.800 C 106.609 101.570,106.249 102.920,105.999 103.800 C 105.749 104.680,105.453 105.850,105.342 106.400 C 105.231 106.950,104.987 107.760,104.800 108.200 C 104.613 108.640,104.369 109.450,104.258 110.000 C 104.147 110.550,103.851 111.720,103.601 112.600 C 103.351 113.480,102.991 114.830,102.800 115.600 C 102.477 116.906,102.299 117.550,101.172 121.500 C 100.937 122.325,100.653 123.450,100.542 124.000 C 99.510 129.100,93.747 130.111,92.564 125.399 C 92.324 124.442,92.472 123.673,93.600 120.000 C 93.769 119.450,94.093 118.280,94.321 117.400 C 94.548 116.520,94.953 114.990,95.221 114.000 C 95.844 111.696,96.231 110.240,96.815 108.000 C 97.072 107.010,97.445 105.787,97.642 105.281 C 97.839 104.776,98.000 103.931,98.000 103.405 C 98.000 102.878,98.180 102.336,98.400 102.200 C 98.620 102.064,98.800 101.522,98.800 100.995 C 98.800 100.469,98.961 99.624,99.158 99.119 C 99.355 98.613,99.715 97.435,99.958 96.500 C 100.966 92.623,101.308 91.349,101.600 90.400 C 101.930 89.326,102.647 86.668,103.219 84.400 C 103.413 83.630,103.681 82.594,103.814 82.098 C 104.555 79.328,107.106 78.110,109.534 79.366 M80.200 90.049 C 78.220 91.610,75.988 93.362,75.240 93.943 C 66.203 100.966,65.600 101.584,65.600 103.812 C 65.600 105.431,66.771 106.760,71.069 110.020 C 73.230 111.659,75.268 113.214,75.599 113.475 C 75.929 113.737,77.190 114.736,78.400 115.696 C 85.342 121.205,88.144 121.679,89.849 117.632 C 90.808 115.356,90.012 113.570,87.027 111.302 C 78.313 104.682,77.597 104.084,77.606 103.430 C 77.609 103.194,80.124 101.020,83.195 98.600 C 90.347 92.964,91.334 91.043,88.520 88.229 C 86.541 86.250,84.438 86.710,80.200 90.049 M118.694 88.215 C 115.916 90.993,116.756 92.826,123.128 97.897 C 129.391 102.880,129.879 103.382,129.228 104.166 C 128.785 104.700,125.389 107.368,120.068 111.362 C 116.938 113.713,116.163 115.607,117.374 117.949 C 119.269 121.615,122.027 121.071,128.800 115.696 C 130.010 114.736,131.271 113.737,131.601 113.475 C 131.932 113.214,133.970 111.659,136.131 110.020 C 140.429 106.760,141.600 105.431,141.600 103.812 C 141.600 101.584,140.997 100.966,131.960 93.943 C 131.212 93.362,128.980 91.610,127.000 90.049 C 122.773 86.718,120.658 86.251,118.694 88.215 M88.274 88.470 C 88.991 89.143,89.200 89.770,89.200 91.250 L 89.200 93.161 83.126 98.080 C 76.004 103.848,76.223 103.480,78.746 105.452 C 90.310 114.486,90.469 114.655,89.566 116.941 C 88.719 119.084,88.042 119.600,86.076 119.600 C 84.178 119.600,84.285 119.668,75.400 112.802 C 74.080 111.781,71.651 109.914,70.002 108.652 C 64.278 104.269,64.459 102.986,71.594 97.391 C 73.832 95.636,77.551 92.715,79.859 90.900 C 84.579 87.188,86.362 86.673,88.274 88.470 M127.341 90.900 C 129.649 92.715,133.379 95.640,135.629 97.400 C 142.655 102.894,142.854 104.321,137.198 108.652 C 135.549 109.914,133.120 111.781,131.800 112.802 C 122.886 119.691,123.029 119.600,121.091 119.600 C 116.164 119.600,116.118 114.986,121.006 111.205 C 122.323 110.186,124.930 108.174,126.800 106.733 C 131.117 103.407,131.262 103.871,124.100 98.087 L 118.000 93.161 118.000 91.306 C 118.000 86.365,121.388 86.218,127.341 90.900 M210.400 129.217 C 209.535 129.409,210.146 129.446,212.000 129.312 C 213.650 129.193,215.075 129.029,215.167 128.948 C 215.458 128.690,211.857 128.893,210.400 129.217 M218.400 129.214 C 219.830 129.375,221.900 129.500,223.000 129.492 C 224.889 129.479,224.855 129.462,222.400 129.186 C 220.970 129.025,218.900 128.900,217.800 128.908 C 215.911 128.921,215.945 128.938,218.400 129.214 M205.000 130.019 C 204.442 130.271,204.685 130.307,205.800 130.138 C 206.680 130.004,207.475 129.828,207.567 129.747 C 207.910 129.444,205.768 129.671,205.000 130.019 M227.600 130.000 C 228.968 130.438,230.019 130.438,229.000 130.000 C 228.560 129.811,227.840 129.662,227.400 129.668 C 226.757 129.677,226.796 129.743,227.600 130.000 M231.400 130.800 C 231.840 130.989,232.470 131.144,232.800 131.144 C 233.178 131.144,233.104 131.017,232.600 130.800 C 232.160 130.611,231.530 130.456,231.200 130.456 C 230.822 130.456,230.896 130.583,231.400 130.800 M234.433 131.344 C 234.525 131.423,235.140 131.608,235.800 131.756 C 236.676 131.952,236.838 131.915,236.400 131.618 C 235.860 131.253,234.032 130.998,234.433 131.344 M125.070 133.064 C 124.921 133.212,124.803 133.528,124.806 133.767 C 124.810 134.022,124.944 133.993,125.132 133.697 C 125.384 133.300,130.511 133.215,149.426 133.297 L 173.400 133.400 173.509 140.700 C 173.631 148.890,173.837 149.343,176.225 146.700 L 177.400 145.400 176.178 146.500 C 174.077 148.392,174.028 148.257,173.909 140.300 L 173.800 133.000 149.570 132.897 C 136.243 132.840,125.218 132.915,125.070 133.064 M193.100 134.229 C 191.605 135.040,191.696 135.378,193.200 134.600 C 193.860 134.259,194.400 133.894,194.400 133.790 C 194.400 133.532,194.357 133.547,193.100 134.229 M185.400 138.814 C 184.080 139.677,183.132 140.388,183.292 140.392 C 183.667 140.402,188.000 137.637,188.000 137.388 C 188.000 137.112,188.004 137.110,185.400 138.814 M253.200 138.579 C 253.200 138.689,253.740 139.059,254.400 139.400 C 255.060 139.741,255.600 139.931,255.600 139.821 C 255.600 139.711,255.060 139.341,254.400 139.000 C 253.740 138.659,253.200 138.469,253.200 138.579 M179.454 143.433 C 178.823 143.987,178.387 144.520,178.483 144.616 C 178.579 144.713,179.174 144.254,179.804 143.596 C 181.196 142.143,181.016 142.059,179.454 143.433 M263.800 146.400 C 265.106 147.720,266.265 148.800,266.375 148.800 C 266.485 148.800,265.506 147.720,264.200 146.400 C 262.894 145.080,261.735 144.000,261.625 144.000 C 261.515 144.000,262.494 145.080,263.800 146.400 M266.400 149.325 C 266.400 149.394,266.985 149.979,267.700 150.625 L 269.000 151.800 267.825 150.500 C 266.730 149.288,266.400 149.016,266.400 149.325 M270.200 154.400 C 270.541 155.060,270.911 155.600,271.021 155.600 C 271.131 155.600,270.941 155.060,270.600 154.400 C 270.259 153.740,269.889 153.200,269.779 153.200 C 269.669 153.200,269.859 153.740,270.200 154.400 M197.800 167.610 C 197.266 167.847,197.598 167.886,198.800 167.727 C 199.790 167.596,200.675 167.424,200.767 167.344 C 201.114 167.043,198.564 167.272,197.800 167.610 M205.633 167.349 C 205.725 167.431,206.700 167.601,207.800 167.728 C 209.149 167.884,209.474 167.849,208.800 167.620 C 207.801 167.280,205.318 167.068,205.633 167.349 M213.200 168.979 C 213.200 169.089,213.740 169.459,214.400 169.800 C 215.060 170.141,215.600 170.331,215.600 170.221 C 215.600 170.111,215.060 169.741,214.400 169.400 C 213.740 169.059,213.200 168.869,213.200 168.979 M188.544 171.169 C 187.853 171.590,187.165 172.133,187.016 172.374 C 186.792 172.737,189.375 171.158,189.956 170.577 C 190.347 170.187,189.733 170.444,188.544 171.169 M276.868 172.000 C 276.888 173.039,277.518 174.746,277.532 173.800 C 277.538 173.360,277.389 172.640,277.200 172.200 C 276.989 171.710,276.861 171.632,276.868 172.000 M218.400 172.100 C 218.400 172.237,219.516 173.486,220.880 174.875 C 222.462 176.486,222.910 176.821,222.117 175.800 C 220.757 174.049,218.400 171.703,218.400 172.100 M181.986 176.700 L 179.800 179.000 182.100 176.814 C 184.237 174.782,184.583 174.400,184.286 174.400 C 184.224 174.400,183.189 175.435,181.986 176.700 M277.698 226.506 L 277.600 275.212 253.238 275.106 C 239.839 275.048,228.960 275.135,229.062 275.300 C 229.408 275.861,277.601 275.663,277.815 275.100 C 277.920 274.825,277.959 252.820,277.901 226.200 L 277.797 177.800 277.698 226.506 M179.113 179.900 C 178.507 180.595,177.280 182.793,177.723 182.390 C 178.083 182.062,179.991 179.200,179.850 179.200 C 179.781 179.200,179.449 179.515,179.113 179.900 M228.282 190.021 C 228.408 190.999,228.575 191.875,228.655 191.967 C 228.981 192.342,228.760 189.355,228.421 188.821 C 228.184 188.446,228.135 188.870,228.282 190.021 M173.856 193.445 C 173.715 194.472,173.600 213.289,173.600 235.262 L 173.600 275.212 149.220 275.106 C 135.811 275.048,124.976 275.136,125.143 275.303 C 125.310 275.470,136.326 275.560,149.623 275.503 L 173.800 275.400 174.000 233.600 C 174.110 210.610,174.180 191.750,174.156 191.689 C 174.132 191.628,173.997 192.418,173.856 193.445 " stroke="none" fill="#7c7c7c" fill-rule="evenodd"></path><path id="path3" d="M106.700 78.282 C 107.195 78.378,108.005 78.378,108.500 78.282 C 108.995 78.187,108.590 78.109,107.600 78.109 C 106.610 78.109,106.205 78.187,106.700 78.282 M104.236 79.631 C 103.666 80.308,103.205 81.073,103.212 81.331 C 103.219 81.589,103.423 81.440,103.667 81.000 C 103.910 80.560,104.476 79.795,104.924 79.300 C 105.373 78.805,105.634 78.400,105.505 78.400 C 105.376 78.400,104.805 78.954,104.236 79.631 M110.132 78.946 C 110.535 79.270,111.130 79.865,111.454 80.268 C 112.003 80.949,112.014 80.938,111.613 80.109 C 111.376 79.619,110.781 79.024,110.291 78.787 C 109.462 78.386,109.451 78.397,110.132 78.946 M112.101 82.600 C 112.105 83.480,112.187 83.793,112.283 83.295 C 112.379 82.798,112.375 82.078,112.275 81.695 C 112.175 81.313,112.096 81.720,112.101 82.600 M102.629 83.029 C 102.481 83.615,102.438 84.172,102.532 84.266 C 102.627 84.360,102.824 83.958,102.971 83.371 C 103.119 82.785,103.162 82.228,103.068 82.134 C 102.973 82.040,102.776 82.442,102.629 83.029 M101.829 85.829 C 101.681 86.415,101.651 86.984,101.761 87.094 C 101.871 87.204,102.081 86.815,102.229 86.229 C 102.376 85.642,102.406 85.073,102.296 84.963 C 102.186 84.853,101.976 85.242,101.829 85.829 M111.473 85.353 C 111.323 85.745,111.211 86.366,111.225 86.733 C 111.242 87.175,111.381 87.074,111.637 86.434 C 111.849 85.903,111.961 85.282,111.885 85.054 C 111.809 84.827,111.624 84.961,111.473 85.353 M83.172 87.302 C 81.346 88.450,72.400 95.584,72.400 95.892 C 72.400 96.019,72.715 95.860,73.100 95.537 C 81.224 88.719,84.523 86.624,86.569 86.982 C 87.533 87.151,87.627 87.118,87.000 86.827 C 85.699 86.224,84.687 86.349,83.172 87.302 M120.200 86.827 C 119.587 87.111,119.700 87.145,120.681 86.971 C 122.341 86.678,123.888 87.432,127.400 90.247 C 132.058 93.980,134.800 96.057,134.800 95.853 C 134.800 95.574,125.722 88.368,124.028 87.302 C 122.513 86.349,121.501 86.224,120.200 86.827 M101.246 88.067 C 101.221 88.434,101.096 89.064,100.970 89.467 C 100.752 90.162,100.763 90.163,101.197 89.487 C 101.448 89.096,101.573 88.466,101.473 88.087 C 101.311 87.468,101.288 87.466,101.246 88.067 M110.629 88.629 C 110.481 89.215,110.438 89.772,110.532 89.866 C 110.627 89.960,110.824 89.558,110.971 88.971 C 111.119 88.385,111.162 87.828,111.068 87.734 C 110.973 87.640,110.776 88.042,110.629 88.629 M89.800 91.200 C 89.800 92.258,89.932 92.916,90.094 92.662 C 90.256 92.408,90.388 91.750,90.388 91.200 C 90.388 90.650,90.256 89.992,90.094 89.738 C 89.932 89.484,89.800 90.142,89.800 91.200 M117.067 89.467 C 115.343 91.190,116.984 93.540,123.613 98.839 C 129.508 103.551,129.483 103.523,128.700 104.401 C 128.275 104.878,128.304 104.882,128.900 104.432 C 130.011 103.591,129.911 103.477,123.618 98.415 C 117.356 93.377,116.636 92.408,117.389 90.035 C 117.659 89.185,117.546 88.987,117.067 89.467 M100.229 91.829 C 100.081 92.415,100.038 92.972,100.132 93.066 C 100.227 93.160,100.424 92.758,100.571 92.171 C 100.719 91.585,100.762 91.028,100.668 90.934 C 100.573 90.840,100.376 91.242,100.229 91.829 M109.849 91.415 C 109.712 91.773,109.615 92.366,109.634 92.733 C 109.653 93.100,109.827 92.869,110.021 92.220 C 110.398 90.958,110.265 90.333,109.849 91.415 M84.059 97.982 C 77.050 103.662,77.255 103.448,78.113 104.201 C 78.489 104.532,78.618 104.586,78.399 104.321 C 77.741 103.527,77.797 103.467,83.583 98.842 C 88.347 95.034,90.089 93.504,89.524 93.627 C 89.456 93.642,86.996 95.602,84.059 97.982 M99.429 94.629 C 99.281 95.215,99.251 95.784,99.361 95.894 C 99.471 96.004,99.681 95.615,99.829 95.029 C 99.976 94.442,100.006 93.873,99.896 93.763 C 99.786 93.653,99.576 94.042,99.429 94.629 M109.029 94.629 C 108.881 95.215,108.838 95.772,108.932 95.866 C 109.027 95.960,109.224 95.558,109.371 94.971 C 109.519 94.385,109.562 93.828,109.468 93.734 C 109.373 93.640,109.176 94.042,109.029 94.629 M68.957 98.368 C 67.394 99.664,66.015 100.984,65.893 101.301 C 65.772 101.618,66.560 101.013,67.645 99.956 C 68.730 98.900,70.154 97.718,70.809 97.331 C 71.464 96.944,72.000 96.486,72.000 96.314 C 72.000 95.844,72.014 95.835,68.957 98.368 M98.629 97.829 C 98.481 98.415,98.438 98.972,98.532 99.066 C 98.627 99.160,98.824 98.758,98.971 98.171 C 99.119 97.585,99.162 97.028,99.068 96.934 C 98.973 96.840,98.776 97.242,98.629 97.829 M139.994 100.203 C 141.587 102.121,141.721 102.245,141.286 101.396 C 141.059 100.953,140.452 100.234,139.937 99.798 C 139.033 99.034,139.035 99.048,139.994 100.203 M97.829 100.629 C 97.681 101.215,97.651 101.784,97.761 101.894 C 97.871 102.004,98.081 101.615,98.229 101.029 C 98.376 100.442,98.406 99.873,98.296 99.763 C 98.186 99.653,97.976 100.042,97.829 100.629 M107.473 100.153 C 107.323 100.545,107.211 101.166,107.225 101.533 C 107.242 101.975,107.381 101.874,107.637 101.234 C 107.849 100.703,107.961 100.082,107.885 99.854 C 107.809 99.627,107.624 99.761,107.473 100.153 M65.293 103.600 C 65.293 104.370,65.375 104.685,65.476 104.300 C 65.576 103.915,65.576 103.285,65.476 102.900 C 65.375 102.515,65.293 102.830,65.293 103.600 M106.629 103.429 C 106.481 104.015,106.438 104.572,106.532 104.666 C 106.627 104.760,106.824 104.358,106.971 103.771 C 107.119 103.185,107.162 102.628,107.068 102.534 C 106.973 102.440,106.776 102.842,106.629 103.429 M79.320 105.057 C 79.471 105.309,81.696 107.109,84.264 109.057 C 86.832 111.005,89.262 113.139,89.665 113.800 C 90.068 114.460,90.398 114.815,90.399 114.589 C 90.402 113.497,89.060 112.307,79.623 105.044 C 79.196 104.715,79.118 104.719,79.320 105.057 M123.400 108.241 C 118.354 112.168,116.795 113.573,116.813 114.175 C 116.820 114.409,117.177 114.129,117.607 113.553 C 118.037 112.978,120.463 110.933,122.997 109.011 C 126.996 105.977,128.403 104.777,127.924 104.808 C 127.856 104.812,125.820 106.357,123.400 108.241 M139.887 106.907 C 139.055 107.787,138.435 108.568,138.510 108.643 C 138.714 108.847,141.600 105.963,141.600 105.554 C 141.600 105.087,141.630 105.063,139.887 106.907 M65.836 106.149 C 66.137 106.934,68.800 108.975,68.800 108.420 C 68.800 108.189,68.634 108.000,68.431 108.000 C 68.228 108.000,67.508 107.447,66.832 106.770 C 66.156 106.094,65.708 105.815,65.836 106.149 M96.229 106.629 C 96.081 107.215,96.038 107.772,96.132 107.866 C 96.227 107.960,96.424 107.558,96.571 106.971 C 96.719 106.385,96.762 105.828,96.668 105.734 C 96.573 105.640,96.376 106.042,96.229 106.629 M105.849 106.215 C 105.712 106.573,105.615 107.166,105.634 107.533 C 105.653 107.900,105.827 107.669,106.021 107.020 C 106.398 105.758,106.265 105.133,105.849 106.215 M95.429 109.429 C 95.281 110.015,95.251 110.584,95.361 110.694 C 95.471 110.804,95.681 110.415,95.829 109.829 C 95.976 109.242,96.006 108.673,95.896 108.563 C 95.786 108.453,95.576 108.842,95.429 109.429 M105.029 109.429 C 104.881 110.015,104.838 110.572,104.932 110.666 C 105.027 110.760,105.224 110.358,105.371 109.771 C 105.519 109.185,105.562 108.628,105.468 108.534 C 105.373 108.440,105.176 108.842,105.029 109.429 M69.200 108.921 C 69.200 109.041,71.129 110.638,73.486 112.470 C 78.831 116.623,79.200 116.893,79.200 116.642 C 79.200 116.531,77.175 114.875,74.700 112.962 C 72.225 111.050,69.975 109.309,69.700 109.094 C 69.425 108.878,69.200 108.800,69.200 108.921 M133.400 112.227 C 129.272 115.426,126.540 117.784,128.614 116.359 C 130.253 115.234,138.000 109.134,138.000 108.970 C 138.000 108.672,137.876 108.760,133.400 112.227 M104.229 112.229 C 104.081 112.815,104.038 113.372,104.132 113.466 C 104.227 113.560,104.424 113.158,104.571 112.571 C 104.719 111.985,104.762 111.428,104.668 111.334 C 104.573 111.240,104.376 111.642,104.229 112.229 M94.629 112.629 C 94.481 113.215,94.438 113.772,94.532 113.866 C 94.627 113.960,94.824 113.558,94.971 112.971 C 95.119 112.385,95.162 111.828,95.068 111.734 C 94.973 111.640,94.776 112.042,94.629 112.629 M93.829 115.429 C 93.681 116.015,93.651 116.584,93.761 116.694 C 93.871 116.804,94.081 116.415,94.229 115.829 C 94.376 115.242,94.406 114.673,94.296 114.563 C 94.186 114.453,93.976 114.842,93.829 115.429 M103.473 114.953 C 103.323 115.345,103.211 115.966,103.225 116.333 C 103.242 116.775,103.381 116.674,103.637 116.034 C 103.849 115.503,103.961 114.882,103.885 114.654 C 103.809 114.427,103.624 114.561,103.473 114.953 M80.800 117.992 C 81.570 118.687,82.560 119.445,83.000 119.677 C 84.062 120.236,83.404 119.636,81.200 118.035 L 79.400 116.728 80.800 117.992 M125.600 118.238 C 123.413 119.975,123.161 120.236,124.200 119.682 C 125.102 119.201,127.908 116.839,127.600 116.820 C 127.490 116.813,126.590 117.451,125.600 118.238 M89.683 118.177 C 88.947 119.792,87.436 120.538,85.494 120.244 C 84.304 120.065,83.978 120.107,84.400 120.388 C 86.207 121.591,91.705 118.772,90.297 117.364 C 90.205 117.272,89.929 117.638,89.683 118.177 M93.246 117.667 C 93.221 118.034,93.096 118.664,92.970 119.067 C 92.752 119.762,92.763 119.763,93.197 119.087 C 93.448 118.696,93.573 118.066,93.473 117.687 C 93.311 117.068,93.288 117.066,93.246 117.667 M102.629 118.229 C 102.481 118.815,102.438 119.372,102.532 119.466 C 102.627 119.560,102.824 119.158,102.971 118.571 C 103.119 117.985,103.162 117.428,103.068 117.334 C 102.973 117.240,102.776 117.642,102.629 118.229 M117.130 118.269 C 118.251 120.364,121.170 121.459,122.800 120.397 C 123.211 120.129,122.801 120.085,121.499 120.257 C 119.676 120.499,119.537 120.445,118.131 118.955 C 117.325 118.100,116.874 117.791,117.130 118.269 M92.229 121.429 C 92.081 122.015,92.038 122.572,92.132 122.666 C 92.227 122.760,92.424 122.358,92.571 121.771 C 92.719 121.185,92.762 120.628,92.668 120.534 C 92.573 120.440,92.376 120.842,92.229 121.429 M101.849 121.015 C 101.712 121.373,101.615 121.966,101.634 122.333 C 101.653 122.700,101.827 122.469,102.021 121.820 C 102.398 120.558,102.265 119.933,101.849 121.015 M101.073 123.753 C 100.923 124.145,100.811 124.766,100.825 125.133 C 100.842 125.575,100.981 125.474,101.237 124.834 C 101.449 124.303,101.561 123.682,101.485 123.454 C 101.409 123.227,101.224 123.361,101.073 123.753 M100.400 126.279 C 100.400 126.505,99.919 127.172,99.332 127.759 C 98.744 128.347,98.553 128.716,98.908 128.580 C 99.674 128.286,100.963 126.430,100.632 126.099 C 100.504 125.971,100.400 126.052,100.400 126.279 M92.800 127.600 C 93.270 128.260,93.856 128.800,94.102 128.800 C 94.348 128.800,94.032 128.260,93.400 127.600 C 92.768 126.940,92.182 126.400,92.098 126.400 C 92.014 126.400,92.330 126.940,92.800 127.600 M214.112 128.695 C 215.164 128.777,216.784 128.776,217.712 128.692 C 218.640 128.608,217.780 128.541,215.800 128.542 C 213.820 128.543,213.060 128.612,214.112 128.695 M95.500 129.082 C 95.995 129.178,96.805 129.178,97.300 129.082 C 97.795 128.987,97.390 128.909,96.400 128.909 C 95.410 128.909,95.005 128.987,95.500 129.082 M221.633 128.944 C 221.725 129.023,223.240 129.183,225.000 129.298 C 226.815 129.418,227.681 129.376,227.000 129.202 C 225.788 128.891,221.325 128.677,221.633 128.944 M206.500 129.476 C 206.885 129.576,207.515 129.576,207.900 129.476 C 208.285 129.375,207.970 129.293,207.200 129.293 C 206.430 129.293,206.115 129.375,206.500 129.476 M203.400 130.000 C 202.896 130.217,202.822 130.344,203.200 130.344 C 203.530 130.344,204.160 130.189,204.600 130.000 C 205.104 129.783,205.178 129.656,204.800 129.656 C 204.470 129.656,203.840 129.811,203.400 130.000 M200.800 130.800 C 199.976 131.064,199.941 131.126,200.600 131.154 C 201.040 131.173,201.670 131.013,202.000 130.800 C 202.701 130.347,202.214 130.347,200.800 130.800 M233.000 130.781 C 233.768 131.129,235.910 131.356,235.567 131.053 C 235.475 130.972,234.680 130.796,233.800 130.662 C 232.685 130.493,232.442 130.529,233.000 130.781 M236.600 131.600 C 237.040 131.789,237.670 131.944,238.000 131.944 C 238.378 131.944,238.304 131.817,237.800 131.600 C 237.360 131.411,236.730 131.256,236.400 131.256 C 236.022 131.256,236.096 131.383,236.600 131.600 M137.100 132.700 C 143.755 132.761,154.645 132.761,161.300 132.700 C 167.955 132.638,162.510 132.588,149.200 132.588 C 135.890 132.588,130.445 132.638,137.100 132.700 M174.000 140.099 C 174.138 145.138,174.340 147.400,174.652 147.400 C 175.142 147.400,179.200 143.740,179.200 143.298 C 179.200 143.149,178.245 143.971,177.077 145.124 C 174.356 147.811,174.400 147.900,174.400 139.733 C 174.400 135.920,174.265 132.800,174.100 132.799 C 173.935 132.799,173.890 136.084,174.000 140.099 M124.596 204.200 C 124.596 243.360,124.643 259.321,124.700 239.668 C 124.757 220.016,124.757 187.976,124.700 168.468 C 124.643 148.961,124.596 165.040,124.596 204.200 M249.200 136.176 C 249.200 136.279,250.055 136.767,251.100 137.261 C 253.765 138.521,253.914 138.567,252.908 137.824 C 251.915 137.092,249.200 135.884,249.200 136.176 M185.196 138.555 C 183.768 139.520,181.880 140.977,181.000 141.794 L 179.400 143.277 181.400 141.698 C 182.500 140.830,184.435 139.437,185.700 138.603 C 187.707 137.280,188.291 136.800,187.896 136.800 C 187.838 136.800,186.623 137.590,185.196 138.555 M254.000 138.579 C 254.000 138.689,254.540 139.059,255.200 139.400 C 255.860 139.741,256.400 139.931,256.400 139.821 C 256.400 139.711,255.860 139.341,255.200 139.000 C 254.540 138.659,254.000 138.469,254.000 138.579 M256.800 140.152 C 256.800 140.251,257.745 141.007,258.900 141.833 C 260.055 142.658,261.810 144.069,262.800 144.967 L 264.599 146.600 263.086 144.969 C 261.710 143.486,256.800 139.724,256.800 140.152 M267.102 149.400 C 267.970 150.500,269.363 152.435,270.197 153.700 C 271.031 154.965,271.788 156.000,271.880 156.000 C 272.315 156.000,268.762 150.900,267.003 149.000 L 265.523 147.400 267.102 149.400 M273.628 159.800 C 273.628 160.020,273.886 160.650,274.200 161.200 C 274.514 161.750,274.772 162.020,274.772 161.800 C 274.772 161.580,274.514 160.950,274.200 160.400 C 273.886 159.850,273.628 159.580,273.628 159.800 M275.206 163.833 C 275.209 164.255,275.395 164.870,275.618 165.200 C 275.915 165.638,275.952 165.476,275.756 164.600 C 275.427 163.129,275.198 162.810,275.206 163.833 M276.056 166.400 C 276.056 166.730,276.211 167.360,276.400 167.800 C 276.617 168.304,276.744 168.378,276.744 168.000 C 276.744 167.670,276.589 167.040,276.400 166.600 C 276.183 166.096,276.056 166.022,276.056 166.400 M200.400 167.621 C 199.499 167.824,199.997 167.859,201.800 167.719 C 203.340 167.599,204.675 167.434,204.767 167.351 C 205.052 167.092,201.871 167.289,200.400 167.621 M196.000 168.418 C 195.562 168.715,195.724 168.752,196.600 168.556 C 198.071 168.227,198.390 167.998,197.367 168.006 C 196.945 168.009,196.330 168.195,196.000 168.418 M208.433 168.144 C 208.525 168.223,209.140 168.408,209.800 168.556 C 210.676 168.752,210.838 168.715,210.400 168.418 C 209.860 168.053,208.032 167.798,208.433 168.144 M212.023 169.179 C 212.586 169.350,213.441 169.701,213.923 169.959 C 214.406 170.217,214.800 170.336,214.800 170.224 C 214.800 169.857,212.456 168.799,211.720 168.834 C 211.241 168.857,211.343 168.973,212.023 169.179 M276.828 169.833 C 276.844 170.475,277.016 171.360,277.210 171.800 C 277.447 172.334,277.486 172.002,277.327 170.800 C 277.046 168.680,276.788 168.180,276.828 169.833 M188.060 172.003 C 187.147 172.664,186.400 173.303,186.400 173.423 C 186.400 173.611,188.654 172.077,189.780 171.122 C 190.727 170.319,189.556 170.918,188.060 172.003 M216.400 171.261 C 216.510 171.355,217.950 172.679,219.600 174.205 L 222.600 176.978 220.200 174.460 C 218.880 173.075,217.440 171.751,217.000 171.517 C 216.560 171.283,216.290 171.168,216.400 171.261 M277.701 174.600 C 277.705 175.480,277.787 175.793,277.883 175.295 C 277.979 174.798,277.975 174.078,277.875 173.695 C 277.775 173.313,277.696 173.720,277.701 174.600 M183.976 175.169 C 182.972 176.029,181.472 177.603,180.642 178.666 L 179.132 180.600 180.776 178.800 C 181.680 177.810,183.270 176.239,184.310 175.308 C 186.689 173.179,186.425 173.069,183.976 175.169 M277.999 225.800 L 277.800 275.400 253.200 275.605 L 228.600 275.809 253.313 275.905 C 272.785 275.980,278.065 275.894,278.215 275.500 C 278.320 275.225,278.359 252.770,278.302 225.600 L 278.198 176.200 277.999 225.800 M178.308 181.700 C 177.433 183.049,176.648 184.656,177.087 184.200 C 177.648 183.617,179.298 180.800,179.079 180.800 C 178.976 180.800,178.629 181.205,178.308 181.700 M227.268 186.800 C 227.288 187.839,227.918 189.546,227.932 188.600 C 227.938 188.160,227.789 187.440,227.600 187.000 C 227.389 186.510,227.261 186.432,227.268 186.800 M174.649 189.815 C 174.512 190.173,174.425 191.216,174.456 192.133 C 174.509 193.701,174.529 193.670,174.792 191.600 C 175.090 189.255,175.051 188.768,174.649 189.815 M228.303 227.200 C 228.359 247.770,228.454 267.030,228.515 270.000 C 228.575 272.970,228.651 256.950,228.683 234.400 C 228.715 211.850,228.619 192.590,228.470 191.600 C 228.322 190.610,228.246 206.630,228.303 227.200 M173.999 235.000 L 173.800 275.400 149.200 275.605 L 124.600 275.809 149.313 275.905 C 168.785 275.980,174.066 275.894,174.216 275.500 C 174.320 275.225,174.359 256.910,174.302 234.800 L 174.198 194.600 173.999 235.000 " stroke="none" fill="#a5a5a5" fill-rule="evenodd"></path><path id="path4" d="" stroke="none" fill="#848484" fill-rule="evenodd"></path></g></svg>